<svg xmlns="http://www.w3.org/2000/svg" viewBox="0 0 64 64" role="img" aria-label="Heartwood Defense">
  <defs>
    <radialGradient id="core" cx="0.42" cy="0.34" r="0.75">
      <stop offset="0" stop-color="#ffe9a8" />
      <stop offset="0.55" stop-color="#ffb84d" />
      <stop offset="1" stop-color="#e0703a" />
    </radialGradient>
  </defs>
  <rect width="64" height="64" rx="14" fill="#0c1710" />
  <circle cx="14" cy="14" r="16" fill="#1d3a24" opacity="0.7" />
  <circle cx="60" cy="62" r="22" fill="#963c82" opacity="0.35" />
  <rect x="29.6" y="40" width="4.8" height="16" rx="2.4" fill="#3a2a1c" stroke="#0a140f" stroke-width="1.6" />
  <path d="M32 18 C 26 12 14 13 13 22 C 12 31 22 39 32 48 C 42 39 52 31 51 22 C 50 13 38 12 32 18 Z"
        fill="url(#core)" stroke="#0a140f" stroke-width="2.4" stroke-linejoin="round" />
  <path d="M32 19 C 32 14 31.5 10 30.5 6.5" fill="none" stroke="#57c178" stroke-width="3" stroke-linecap="round" />
  <path d="M30 11 C 26 8 23 8.5 22.5 10.5 C 22 12.5 25 14 30 11 Z" fill="#7fd77f" stroke="#0a140f" stroke-width="1.4" />
  <path d="M30.8 7.5 C 34 4.5 37.5 5 38 7.5 C 38.5 10 35 11.5 30.8 7.5 Z" fill="#a3f2a0" stroke="#0a140f" stroke-width="1.4" />
</svg>
